<svg xmlns="http://www.w3.org/2000/svg" xmlns:xlink="http://www.w3.org/1999/xlink" width="3351" zoomAndPan="magnify" viewBox="0 0 2513.25 2495.250004" height="3327" preserveAspectRatio="xMidYMid meet" version="1.0"><defs><clipPath id="0b0243a87d"><path d="M 0.00390625 0 L 2512.496094 0 L 2512.496094 2494.5 L 0.00390625 2494.5 Z M 0.00390625 0 " clip-rule="nonzero"/></clipPath><clipPath id="b67877de2d"><path d="M 158.742188 149.742188 L 2354.082031 149.742188 L 2354.082031 2345.082031 L 158.742188 2345.082031 Z M 158.742188 149.742188 " clip-rule="nonzero"/></clipPath></defs><g clip-path="url(#0b0243a87d)"><path fill="#ffffff" d="M 0.00390625 0 L 2512.496094 0 L 2512.496094 2494.5 L 0.00390625 2494.5 Z M 0.00390625 0 " fill-opacity="1" fill-rule="nonzero"/><path fill="#ffffff" d="M 0.00390625 0 L 2512.496094 0 L 2512.496094 2494.5 L 0.00390625 2494.5 Z M 0.00390625 0 " fill-opacity="1" fill-rule="nonzero"/></g><path fill="#c0d852" d="M 1254.269531 167.441406 C 1849.753906 167.441406 2334.1875 651.910156 2334.1875 1247.394531 C 2334.1875 1842.878906 1849.753906 2327.382812 1254.269531 2327.382812 C 658.765625 2327.382812 174.316406 1842.878906 174.316406 1247.394531 C 174.316406 651.910156 658.765625 167.441406 1254.269531 167.441406 " fill-opacity="1" fill-rule="nonzero"/><path fill="#8cc63f" d="M 2215.175781 753.820312 C 2251.089844 860.550781 2270.832031 974.640625 2270.832031 1093.308594 C 2270.832031 1682.226562 1791.679688 2161.429688 1202.710938 2161.429688 C 737.042969 2161.429688 340.234375 1861.644531 194.433594 1445.0625 C 286.585938 1947.691406 727.539062 2329.902344 1256.410156 2329.902344 C 1851.898438 2329.902344 2336.347656 1845.402344 2336.347656 1249.914062 C 2336.347656 1071.132812 2292.421875 902.46875 2215.175781 753.820312 " fill-opacity="1" fill-rule="nonzero"/><path fill="#a4ce44" d="M 1202.710938 2161.429688 C 1791.679688 2161.429688 2270.832031 1682.226562 2270.832031 1093.308594 C 2270.832031 974.640625 2251.089844 860.550781 2215.175781 753.820312 C 2142.007812 613.027344 2038.878906 490.328125 1914.15625 394.214844 C 2028.929688 550.355469 2096.902344 742.914062 2096.902344 951.109375 C 2096.902344 1470.734375 1674.109375 1893.527344 1154.5 1893.527344 C 642.144531 1893.527344 224.257812 1482.449219 212.628906 972.855469 C 189.167969 1061.339844 176.457031 1154.160156 176.457031 1249.914062 C 176.457031 1316.53125 182.855469 1381.703125 194.433594 1445.0625 C 340.234375 1861.644531 737.042969 2161.429688 1202.710938 2161.429688 " fill-opacity="1" fill-rule="nonzero"/><path fill="#dee468" d="M 1442.5 384.746094 C 1462.894531 487.136719 1322.253906 601.449219 1128.378906 640.109375 C 934.484375 678.734375 760.78125 627.089844 740.386719 524.683594 C 719.976562 422.253906 860.582031 307.945312 1054.476562 269.300781 C 1248.351562 230.679688 1422.058594 282.304688 1442.5 384.746094 " fill-opacity="1" fill-rule="nonzero"/><path fill="#ffffff" d="M 2159.003906 655.425781 C 2141.269531 628.257812 2122.351562 602.035156 2102.269531 576.648438 C 2102.765625 578.417969 2103.109375 580.234375 2103.589844 581.964844 C 2123.28125 606.851562 2142.007812 632.578125 2159.535156 659.164062 C 2159.296875 657.945312 2159.226562 656.675781 2159.003906 655.425781 " fill-opacity="1" fill-rule="nonzero"/><path fill="#d0d2d3" d="M 662.742188 2147.5 C 673.410156 2154.515625 684.0625 2161.566406 695.003906 2168.203125 C 724.660156 2135.410156 760.195312 2106.921875 799.660156 2082.105469 C 785.578125 2076.308594 771.910156 2069.824219 758.121094 2063.476562 C 722.429688 2088.175781 690.304688 2116.199219 662.742188 2147.5 " fill-opacity="1" fill-rule="nonzero"/><path fill="#ffffff" d="M 2204.96875 731.902344 C 2198.042969 719.160156 2190.769531 706.65625 2183.34375 694.238281 C 2175.554688 681.101562 2167.390625 668.183594 2159.003906 655.425781 C 2141.269531 628.257812 2122.351562 602.035156 2102.269531 576.648438 C 2091.191406 562.6875 2079.785156 548.917969 2068.035156 535.488281 C 2058.378906 524.441406 2048.519531 513.601562 2038.433594 502.933594 L 2035.464844 504.203125 L 2042.875 521.699219 C 2110.398438 680.878906 2110.484375 877.773438 2043.03125 1035.511719 C 2005.984375 1122.261719 1931.289062 1237.191406 1786.089844 1292.140625 C 1729.78125 1313.460938 1672.273438 1324.316406 1615.195312 1324.316406 C 1371.648438 1324.316406 1165.167969 1128.007812 1034.957031 963.390625 L 1003.246094 922.949219 C 876.171875 760.339844 702.140625 537.71875 495.230469 527.835938 C 478.710938 527.238281 462.351562 528.472656 446.109375 530.511719 C 439.78125 537.71875 433.46875 544.867188 427.292969 552.210938 C 420.46875 560.375 413.882812 568.726562 407.277344 577.078125 C 392.238281 596.097656 377.710938 615.546875 363.972656 635.582031 C 354.933594 648.734375 346.1875 662.214844 337.714844 675.835938 C 326.824219 693.277344 316.308594 710.960938 306.394531 729.070312 C 367.574219 667.292969 427.035156 638.769531 489.964844 641.703125 C 644.53125 649.042969 799.96875 847.910156 913.457031 993.148438 L 945.546875 1034.019531 C 1154.277344 1297.921875 1386.964844 1437.445312 1618.386719 1437.445312 C 1688.585938 1437.445312 1758.5625 1424.445312 1826.445312 1398.769531 C 1971.0625 1343.988281 2082.21875 1233.898438 2147.875 1080.292969 C 2193.425781 973.59375 2211.917969 851.753906 2204.96875 731.902344 " fill-opacity="1" fill-rule="nonzero"/><path fill="#e6e7e8" d="M 2200.183594 735.640625 C 2154.117188 650.984375 2097.160156 573.117188 2031.023438 504.015625 L 2030.5625 504.203125 L 2037.988281 521.699219 C 2080.246094 621.328125 2096.0625 735.742188 2085.445312 846.128906 C 2089.285156 880.652344 2092.011719 915.574219 2092.011719 951.109375 C 2092.011719 1050.980469 2076.199219 1147.265625 2047.316406 1237.671875 C 2085.445312 1192.066406 2117.671875 1139.515625 2142.984375 1080.292969 C 2188.058594 974.710938 2206.496094 854.273438 2200.183594 735.640625 " fill-opacity="1" fill-rule="nonzero"/><path fill="#e6e7e8" d="M 1184.773438 1904.984375 C 1170.964844 1904.984375 1157.125 1905.292969 1143.214844 1905.84375 C 927.195312 1914.777344 744.726562 1995.027344 631.339844 2125.941406 C 636.535156 2129.628906 641.613281 2133.402344 646.894531 2137.003906 C 652.128906 2140.574219 657.425781 2144.019531 662.742188 2147.5 C 673.410156 2154.515625 684.0625 2161.566406 695.003906 2168.203125 C 700.664062 2171.617188 706.480469 2174.789062 712.191406 2178.117188 C 717.765625 2181.390625 723.390625 2184.652344 729.050781 2187.789062 C 822.816406 2088.125 971.359375 2027.015625 1147.878906 2019.742188 C 1376.417969 2010.191406 1594.804688 2091.433594 1715.511719 2221.59375 C 1721.445312 2218.78125 1727.382812 2215.832031 1733.28125 2212.914062 C 1739.113281 2210.015625 1744.824219 2207.015625 1750.601562 2204.046875 C 1762.199219 2198.011719 1773.6875 2191.820312 1785.042969 2185.386719 C 1790.683594 2182.199219 1796.328125 2178.957031 1801.917969 2175.664062 C 1807.460938 2172.40625 1813.015625 2169.214844 1818.46875 2165.871094 C 1685.394531 2005.421875 1446.359375 1904.984375 1184.773438 1904.984375 " fill-opacity="1" fill-rule="nonzero"/><path fill="#d0d2d3" d="M 1715.511719 2221.59375 C 1721.445312 2218.78125 1727.382812 2215.832031 1733.28125 2212.914062 C 1739.113281 2210.015625 1744.824219 2207.015625 1750.601562 2204.046875 C 1762.199219 2198.011719 1773.6875 2191.820312 1785.042969 2185.386719 C 1790.683594 2182.199219 1796.328125 2178.957031 1801.917969 2175.664062 C 1807.460938 2172.40625 1813.015625 2169.214844 1818.46875 2165.871094 C 1781.253906 2121.054688 1735.628906 2081.109375 1683.679688 2046.515625 C 1641.265625 2068.039062 1597.238281 2086.769531 1551.839844 2102.546875 C 1616.242188 2134.671875 1672.171875 2174.925781 1715.511719 2221.59375 " fill-opacity="1" fill-rule="nonzero"/><path fill="#d0d2d3" d="M 631.339844 2125.941406 C 636.535156 2129.628906 641.613281 2133.402344 646.894531 2137.003906 C 652.128906 2140.574219 657.425781 2144.019531 662.742188 2147.5 C 673.410156 2154.515625 684.0625 2161.566406 695.003906 2168.203125 C 700.664062 2171.617188 706.480469 2174.789062 712.191406 2178.117188 C 717.765625 2181.390625 723.390625 2184.652344 729.050781 2187.789062 C 761.464844 2153.28125 800.863281 2123.765625 845.386719 2099.152344 C 802.011719 2083.699219 759.683594 2066.066406 719.121094 2045.367188 C 686.738281 2069.601562 657.050781 2096.269531 631.339844 2125.941406 " fill-opacity="1" fill-rule="nonzero"/><g clip-path="url(#b67877de2d)"><path fill="#000000" d="M 1256.410156 149.726562 C 651.117188 149.726562 158.742188 642.148438 158.742188 1247.394531 C 158.742188 1852.675781 651.117188 2345.097656 1256.410156 2345.097656 C 1861.691406 2345.097656 2354.082031 1852.675781 2354.082031 1247.394531 C 2354.082031 642.148438 1861.691406 149.726562 1256.410156 149.726562 Z M 1256.410156 206.71875 C 1556.417969 206.71875 1826.996094 334.476562 2017.113281 538.230469 C 2068.480469 680.722656 2082.804688 829.578125 2034.28125 978.019531 C 1982.570312 1135.980469 1862.136719 1256.84375 1695.769531 1288.195312 C 1494.847656 1326.066406 1310.695312 1211.515625 1173.261719 1075.882812 C 1059.515625 963.628906 973.367188 827.640625 863.859375 711.558594 C 800.554688 644.5 729.789062 581.195312 646.449219 540.203125 C 609.796875 522.125 570.539062 509.175781 530.027344 503.089844 C 717.765625 319.898438 974.035156 206.71875 1256.410156 206.71875 Z M 478.679688 556.925781 C 493.753906 556.515625 508.691406 557.011719 523.769531 559.378906 C 575 567.386719 623.160156 589.203125 666.671875 616.921875 C 808.355469 707.082031 909.789062 849.933594 1011.890625 980.179688 C 1122.890625 1121.695312 1263.425781 1256.519531 1435.039062 1319.550781 C 1626.996094 1390.039062 1852.273438 1342.824219 1985.863281 1183.832031 C 2106.847656 1039.902344 2142.675781 835.941406 2110.175781 653.382812 C 2134.753906 688.5625 2157.136719 725.296875 2177.304688 763.425781 C 2177.410156 764.953125 2177.785156 766.425781 2177.785156 767.953125 C 2178.59375 818.257812 2174.851562 868.628906 2166.054688 918.179688 C 2132.285156 1109.089844 2019 1286.085938 1836.71875 1363.917969 C 1657.078125 1440.652344 1460.871094 1411.480469 1295.621094 1314.710938 C 1137.089844 1221.941406 1020.738281 1083.191406 908.707031 940.90625 C 847.941406 863.707031 785.167969 786.734375 711.09375 721.75 C 647.632812 666.144531 568.824219 612.976562 481.199219 612.976562 C 462.386719 612.976562 443.929688 616.355469 425.820312 621.226562 C 442.542969 599.03125 460.292969 577.628906 478.679688 556.925781 Z M 1715.082031 2181.273438 C 1591.457031 2063.1875 1391.546875 1990.5 1184.238281 1990.5 C 1171.789062 1990.5 1159.234375 1990.757812 1146.746094 1991.273438 C 977.828125 1998.253906 832.09375 2052.949219 731.777344 2145.613281 C 714.816406 2135.71875 698.144531 2125.394531 681.816406 2114.519531 C 792.335938 2005.96875 954.535156 1942.152344 1144.363281 1934.296875 C 1391.921875 1925.171875 1628.042969 2008.9375 1768.269531 2153.007812 C 1750.84375 2162.902344 1733.125 2172.40625 1715.082031 2181.273438 Z M 784.621094 2174.566406 C 874.386719 2098.792969 1001.804688 2054.285156 1149.082031 2048.195312 C 1346.09375 2040.101562 1537.65625 2101.535156 1659.050781 2207.015625 C 1535.132812 2259.207031 1399.089844 2288.105469 1256.410156 2288.105469 C 1086.597656 2288.105469 926.320312 2246.960938 784.621094 2174.566406 Z M 1818.144531 2122.769531 C 1666.769531 1959.472656 1415.660156 1865.8125 1142.015625 1877.390625 C 933.714844 1886 755.667969 1958.632812 634.875 2081.625 C 380.625 1891.691406 215.71875 1588.460938 215.71875 1247.394531 C 215.71875 1054.582031 268.628906 873.980469 360.371094 718.988281 C 401.996094 686.039062 451.21875 663.621094 506 671.90625 C 569.132812 681.441406 624.789062 721.664062 671.75 762.652344 C 766.9375 845.871094 842.675781 949.121094 920.40625 1048.132812 C 1089.308594 1263.363281 1330.28125 1465.933594 1618.386719 1465.933594 C 1776.585938 1465.933594 1933.589844 1403.058594 2044.214844 1289.433594 C 2151.820312 1178.945312 2211.625 1029.628906 2228.980469 877.582031 C 2272.835938 992.597656 2297.089844 1117.183594 2297.089844 1247.394531 C 2297.089844 1614.410156 2105.957031 1937.453125 1818.144531 2122.769531 " fill-opacity="1" fill-rule="nonzero"/></g></svg>